<?xml version="1.0" ?><!DOCTYPE svg  PUBLIC '-//W3C//DTD SVG 1.1//EN'  'http://www.w3.org/Graphics/SVG/1.1/DTD/svg11.dtd'><svg id="Layer_1" style="enable-background:new 0 0 74 74;" version="1.1" x="0px" y="0px"
	 width="400px"  viewBox="0 0 74 74" xml:space="preserve" xmlns="http://www.w3.org/2000/svg" xmlns:xlink="http://www.w3.org/1999/xlink"><style type="text/css">
	.st0{fill:none;stroke:#000000;stroke-width:2;stroke-linecap:round;stroke-linejoin:round;stroke-miterlimit:10;}
	.st1{fill:none;}
</style><g><path class="st0" d="M2,72l27.5-5.7c-0.4-4.3-2.8-6.8-7.3-7.3c-0.4-4.3-2.8-6.8-7.3-7.3c-0.4-4.3-2.8-6.8-7.3-7.3L2,72z"/><path class="st0" d="M58.8,37.1L29.5,66.3c-0.4-4.3-2.8-6.8-7.3-7.3c-0.4-4.3-2.8-6.8-7.3-7.3c-0.4-4.3-2.8-6.8-7.3-7.3l29.3-29.3   L58.8,37.1z"/><path class="st0" d="M51.5,29.8L22.2,59c-0.4-4.3-2.8-6.8-7.3-7.3l29.3-29.3L51.5,29.8z"/><path class="st0" d="M71,24.9L58.8,37.1L36.9,15.2L49.1,3c1.4-1.4,3.6-1.4,5,0L71,19.9C72.3,21.3,72.3,23.5,71,24.9z"/><rect class="st0" height="30.9" transform="matrix(0.7071 -0.7071 0.7071 0.7071 -2.5542 42.289)" width="5.4" x="47.1" y="8.8"/><path class="st0" d="M11.8,70C11,66.1,7.9,63,4,62.2"/></g></svg>