<!--?xml version="1.0" encoding="utf-8"?-->
<!-- Generator: Adobe Illustrator 19.1.1, SVG Export Plug-In . SVG Version: 6.00 Build 0)  -->
<svg version="1.1" id="_x31_0" xmlns="http://www.w3.org/2000/svg" xmlns:xlink="http://www.w3.org/1999/xlink" x="0px" y="0px" viewBox="0 0 512 512" style="width: 64px; height: 64px; opacity: 1;" xml:space="preserve">
<style type="text/css">
	.st0{fill:#374149;}
</style>
<g>
	<path class="st0" d="M405.43,0H106.57C47.774,0,0,47.817,0,106.57V405.43C0,464.183,47.774,512,106.57,512H405.43
		C464.183,512,512,464.183,512,405.43V106.57C512,47.817,464.183,0,405.43,0z M255.676,119.45h-23.168V50.969h23.168v68.222V119.45z
		 M304.898,178.543c1.43,0.808,2.863,1.602,4.246,2.473c0.922,0.586,1.801,1.234,2.703,1.847c1.281,0.867,2.574,1.715,3.808,2.641
		c0.57,0.426,1.106,0.898,1.664,1.336c15.91,12.461,27.973,29.613,33.993,49.422c2.824,9.172,4.308,18.902,4.308,29.004
		c0,55.047-44.621,99.621-99.621,99.621c-55.043,0-99.617-44.574-99.617-99.621c0-10.102,1.48-19.832,4.308-29.004
		c12.418-40.867,50.367-70.617,95.309-70.617c16.762,0,32.554,4.156,46.422,11.476C303.266,177.566,304.07,178.074,304.898,178.543z
		 M426.652,145.91c0,6.301-5.098,11.394-11.398,11.394h-48.281c-6.254,0-11.352-5.094-11.352-11.394V97.629
		c0-6.305,5.098-11.398,11.352-11.398h48.281c6.301,0,11.398,5.094,11.398,11.398V145.91z M183.442,119.45h-23.168V50.969h23.168
		V119.45z M111.203,119.45H88.039V54.164c5.789-2.082,12.046-3.195,18.531-3.195h4.633V119.45z M50.969,236.262h58.984l12.462,0.031
		c-2.035,9.352-3.102,19.024-3.102,28.973c0,75.386,61.301,136.687,136.687,136.687c75.344,0,136.687-61.301,136.687-136.687
		c0-9.242-1.007-18.218-2.77-26.949c-0.125-0.684-0.175-1.375-0.308-2.055h71.422V405.43c0,30.582-25.019,55.602-55.602,55.602
		H106.57c-30.578,0-55.602-25.019-55.602-55.602V236.262z" style="fill: rgb(75, 75, 75);"></path>
	<path class="st0" d="M194.098,236.262c-4.121,8.805-6.442,18.625-6.442,29.004c0,37.718,30.582,68.301,68.344,68.301
		c37.718,0,68.297-30.582,68.297-68.301c0-10.379-2.313-20.199-6.438-29.004c-10.938-23.214-34.519-39.293-61.859-39.293
		C228.617,196.969,205.031,213.047,194.098,236.262z M291.078,227.457c2.5,2.688,4.355,5.699,5.652,8.805
		c3.66,9.082,2.176,19.137-4.586,25.39c-9.082,8.387-24.328,6.672-34.012-3.843c-5.789-6.305-8.293-14.321-7.414-21.547
		c0.602-4.82,2.688-9.266,6.348-12.648C266.149,215.226,281.348,216.942,291.078,227.457z" style="fill: rgb(75, 75, 75);"></path>
</g>
</svg>
